<svg id="Layer_1" data-name="Layer 1" xmlns="http://www.w3.org/2000/svg" xmlns:xlink="http://www.w3.org/1999/xlink" viewBox="0 0 227.42 235.41"><defs><style>.cls-1{filter:url(#luminosity-noclip);}.cls-2{font-size:79.08px;letter-spacing:-0.02em;}.cls-2,.cls-6{font-family:Toppan-BunkyuMidashiGoStdN-EB-83pv-RKSJ-H, Toppan BunkyuMidashiGoStdN;}.cls-3{fill:#fff;}.cls-4{mask:url(#mask);}.cls-5{mask:url(#mask-2);}.cls-6{font-size:96px;}.cls-7{filter:url(#luminosity-noclip-2);}</style><filter id="luminosity-noclip" x="80.87" y="64.6" width="53.72" height="62.67" filterUnits="userSpaceOnUse" color-interpolation-filters="sRGB"><feFlood flood-color="#fff" result="bg"/><feBlend in="SourceGraphic" in2="bg"/></filter><mask id="mask" x="80.87" y="64.6" width="53.72" height="62.67" maskUnits="userSpaceOnUse"><rect class="cls-1" x="80.87" y="64.6" width="53.72" height="62.67"/></mask><filter id="luminosity-noclip-2" x="93.7" y="13.91" width="120.28" height="119.07" filterUnits="userSpaceOnUse" color-interpolation-filters="sRGB"><feFlood flood-color="#fff" result="bg"/><feBlend in="SourceGraphic" in2="bg"/></filter><mask id="mask-2" x="93.7" y="13.91" width="120.28" height="119.07" maskUnits="userSpaceOnUse"><g class="cls-7"><text class="cls-2" transform="translate(118.21 89.42)">あ</text></g></mask></defs><rect class="cls-3" x="-0.25" y="0.12" width="228" height="235"/><g class="cls-4"><g class="cls-5"><path d="M93.7,79.12a26.18,26.18,0,0,0,26.18,26.18h46.31a132.35,132.35,0,0,1-5.91,21.14,4.67,4.67,0,0,0-.35,1.84,4.73,4.73,0,0,0,4.77,4.7,5,5,0,0,0,2.47-.69c.39-.23,35.52-21.9,43.15-36.57v0a21.34,21.34,0,0,0,3.65-12V35.53a21.65,21.65,0,0,0-21.63-21.62h-77A21.65,21.65,0,0,0,93.7,35.53V79.12Z"/></g></g><path d="M142.48,85.2a27.83,27.83,0,0,0-27.84-27.83H41.94a28.54,28.54,0,0,0-28.5,28.5v70.66a28.17,28.17,0,0,0,4.81,15.83c10.05,19.33,56.38,47.92,56.89,48.21a6.44,6.44,0,0,0,3.26.92,6.1,6.1,0,0,0,2.42-.47,6.24,6.24,0,0,0,3.4-8.15A174.88,174.88,0,0,1,76.43,185H114a28.51,28.51,0,0,0,28.5-28.47V85.2ZM26,85.87A16,16,0,0,1,41.94,69.93h72a16,16,0,0,1,15.94,15.94v70.66A15.93,15.93,0,0,1,114,172.44H68.9a6.39,6.39,0,0,0-4.77,2.22,6.23,6.23,0,0,0-1.43,5c.09.59,1.51,9.67,4.32,20.47C53,190.35,34.41,176.08,29.47,166.7a6.62,6.62,0,0,0-.63-1.13,15.23,15.23,0,0,1-2.84-9Z"/><text class="cls-6" transform="translate(49.52 146.4)">a</text></svg>