<svg id="Layer_1" data-name="Layer 1" xmlns="http://www.w3.org/2000/svg" xmlns:xlink="http://www.w3.org/1999/xlink" viewBox="0 0 482.54 207.58"><defs><style>.cls-1{filter:url(#luminosity-noclip);}.cls-2{font-size:79.08px;font-family:Toppan-BunkyuMidashiGoStdN-EB-83pv-RKSJ-H, Toppan BunkyuMidashiGoStdN;letter-spacing:-0.02em;}.cls-3{mask:url(#mask);}.cls-4{mask:url(#mask-2);}.cls-5{fill:#fff;}.cls-6{filter:url(#luminosity-noclip-2);}</style><filter id="luminosity-noclip" x="349.43" y="50.69" width="53.72" height="62.67" filterUnits="userSpaceOnUse" color-interpolation-filters="sRGB"><feFlood flood-color="#fff" result="bg"/><feBlend in="SourceGraphic" in2="bg"/></filter><mask id="mask" x="349.43" y="50.69" width="53.72" height="62.67" maskUnits="userSpaceOnUse"><rect class="cls-1" x="349.43" y="50.69" width="53.72" height="62.67"/></mask><filter id="luminosity-noclip-2" x="362.26" y="0" width="120.28" height="119.07" filterUnits="userSpaceOnUse" color-interpolation-filters="sRGB"><feFlood flood-color="#fff" result="bg"/><feBlend in="SourceGraphic" in2="bg"/></filter><mask id="mask-2" x="362.26" y="0" width="120.28" height="119.07" maskUnits="userSpaceOnUse"><g class="cls-6"><text class="cls-2" transform="translate(386.77 75.51)">あ</text></g></mask></defs><g class="cls-3"><g class="cls-4"><path class="cls-5" d="M362.26,65.21a26.18,26.18,0,0,0,26.18,26.17h46.31a132.43,132.43,0,0,1-5.9,21.15,4.64,4.64,0,0,0-.36,1.84,4.74,4.74,0,0,0,4.77,4.7,4.94,4.94,0,0,0,2.48-.7c.38-.22,35.51-21.89,43.14-36.56l0,0a21.41,21.41,0,0,0,3.64-12V21.62A21.65,21.65,0,0,0,460.92,0h-77a21.65,21.65,0,0,0-21.62,21.62V65.21Z"/></g></g><path class="cls-5" d="M411,71.29a27.83,27.83,0,0,0-27.83-27.83H28.5A28.54,28.54,0,0,0,0,72v70.66a28.19,28.19,0,0,0,4.81,15.82c10.05,19.34,56.38,47.93,56.89,48.22a6.44,6.44,0,0,0,3.26.92,6.1,6.1,0,0,0,2.42-.47,6.24,6.24,0,0,0,3.4-8.15A174.88,174.88,0,0,1,63,171.09H382.54A28.51,28.51,0,0,0,411,142.62V71.29ZM12.56,72A16,16,0,0,1,28.5,56h354A16,16,0,0,1,398.48,72v70.66a15.93,15.93,0,0,1-15.94,15.91H55.46a6.4,6.4,0,0,0-4.77,2.22,6.19,6.19,0,0,0-1.42,5c.08.59,1.5,9.67,4.31,20.47C39.51,176.44,21,162.17,16,152.79a6.62,6.62,0,0,0-.63-1.13,15.23,15.23,0,0,1-2.84-9Z"/><path class="cls-5" d="M79.14,120.13c0,2.84,1,4.19,3.09,4.19a2.92,2.92,0,0,0,1.1-.08v9.49A18.62,18.62,0,0,1,76.14,135c-5.14,0-7.51-1.74-8.62-5.14-2.69,4-6.88,5.93-12.65,5.93-9.33,0-15-5-15-13.44C39.85,113,47.36,108,59.3,108a38.5,38.5,0,0,1,6.32.55v-2.69c0-5.45-2.05-8-5.69-8s-5.77,2.29-6.64,7.35l-11.47-2.13c2.22-9.1,8.94-14,19.06-14,11.31,0,18.26,5.93,18.26,16.13Zm-13.52-2.85a23.62,23.62,0,0,0-5.61-.63c-4.11,0-6.72,2-6.72,5.37,0,2.69,2.05,4.67,5.45,4.67C63.33,126.69,65.62,123.84,65.62,117.28Z"/><path class="cls-5" d="M102.31,122.58c0,2.45.79,3.71,3.16,3.71a4.56,4.56,0,0,0,1.34-.15V135a21.87,21.87,0,0,1-6,.79c-6.8,0-11.94-2.45-11.94-11V71.74h13.44Z"/><path class="cls-5" d="M125,122.58c0,2.45.79,3.71,3.16,3.71a4.66,4.66,0,0,0,1.35-.15V135a22,22,0,0,1-6,.79c-6.8,0-11.94-2.45-11.94-11V71.74H125Z"/><path class="cls-5" d="M146.43,114.59c1,7,4.19,10.75,10.75,10.75,3.72,0,6.48-1.89,6.48-5.85,0-4.42-2.69-6.16-12.41-9.56-11.23-4-17-9.41-17-18.82,0-11.63,8.22-18.58,20.72-18.58,12.65,0,20.39,6.32,22.13,18.1L163,93.56c-.55-7.43-3.48-11.31-8.7-11.31-4,0-6.24,2.53-6.24,6.33,0,4.19,2.92,6.4,11.78,9.25C173,102,178.53,106.92,178.53,117c0,11.47-8.3,18.82-22.22,18.82-14.55,0-22.77-6.56-24.43-19.45Z"/><path class="cls-5" d="M198.53,95.54a14,14,0,0,1,12.1-6.41c11.78,0,18.18,8.3,18.18,23.48,0,13.53-7.9,23.17-19,23.17a13.22,13.22,0,0,1-11.62-6h-.32a46.32,46.32,0,0,1,1.18,11.94v8.5H185.64V89.92h13.44v.24a21.42,21.42,0,0,1-.79,5.38Zm16.61,17.07c0-8.85-3.32-13.67-8.46-13.67-4.91,0-7.83,4.82-7.83,13.75s2.61,13.45,8.22,13.45C211.82,126.14,215.14,121.39,215.14,112.61Z"/><path class="cls-5" d="M273.88,116.41H247.16c.79,7.51,3.79,10.28,7.82,10.28,3,0,5-2.06,5.93-5.85l11.79,3.56c-3.8,9.09-10.2,11.38-17.87,11.38-13.6,0-21.27-8.06-21.27-22.61,0-16.13,8.62-24,20.16-24,14.39,0,20.16,9.17,20.16,20.4Zm-12.49-9c-.08-6.17-3.08-9.25-7-9.25-3.32,0-6.32,2-7.19,9.25Z"/><path class="cls-5" d="M318.32,120.13c0,2.84,1,4.19,3.08,4.19a3,3,0,0,0,1.11-.08v9.49a18.67,18.67,0,0,1-7.2,1.26c-5.14,0-7.51-1.74-8.62-5.14-2.68,4-6.87,5.93-12.65,5.93-9.33,0-15-5-15-13.44C279,113,286.53,108,298.47,108a38.71,38.71,0,0,1,6.33.55v-2.69c0-5.45-2.06-8-5.7-8s-5.77,2.29-6.64,7.35L281,103.13c2.21-9.1,8.93-14,19.05-14,11.31,0,18.27,5.93,18.27,16.13Zm-13.52-2.85a23.71,23.71,0,0,0-5.62-.63c-4.11,0-6.72,2-6.72,5.37,0,2.69,2.06,4.67,5.46,4.67C302.5,126.69,304.8,123.84,304.8,117.28Z"/><path class="cls-5" d="M353.66,108.42,371.21,135H355.08L344.8,117.75l-3.32,3.48V135H328V71.74h13.44V99.65A48.11,48.11,0,0,1,340.3,111h.39a58.78,58.78,0,0,1,7-11.22L355,89.92h16.21Z"/></svg>