<svg id="Layer_1" data-name="Layer 1" xmlns="http://www.w3.org/2000/svg" viewBox="0 0 411.04 164.12"><path d="M411,27.57A27.83,27.83,0,0,0,383.21-.26H28.5A28.53,28.53,0,0,0,0,28.24V98.9a28.19,28.19,0,0,0,4.81,15.82c10.05,19.34,56.38,47.93,56.89,48.22a6.44,6.44,0,0,0,3.26.92,6.1,6.1,0,0,0,2.42-.47,6.24,6.24,0,0,0,3.4-8.15A175,175,0,0,1,63,127.36H382.54A28.5,28.5,0,0,0,411,98.9V27.57Zm-398.48.67A16,16,0,0,1,28.5,12.29h354a16,16,0,0,1,15.94,16V98.9a15.94,15.94,0,0,1-15.94,15.91H55.46A6.43,6.43,0,0,0,50.69,117a6.21,6.21,0,0,0-1.42,5c.08.58,1.5,9.67,4.31,20.46C39.51,132.72,21,118.45,16,109.07a5.94,5.94,0,0,0-.63-1.13,15.23,15.23,0,0,1-2.84-9Z"/><path d="M79.14,76.4c0,2.85,1,4.19,3.09,4.19a3.32,3.32,0,0,0,1.1-.07V90a18.63,18.63,0,0,1-7.19,1.27c-5.14,0-7.51-1.74-8.62-5.14-2.69,4-6.88,5.93-12.65,5.93-9.33,0-15-5-15-13.44,0-9.33,7.51-14.31,19.45-14.31a37.43,37.43,0,0,1,6.32.55V62.17c0-5.45-2.05-8-5.69-8s-5.77,2.29-6.64,7.35L41.82,59.4c2.22-9.09,8.94-14,19.06-14,11.31,0,18.26,5.93,18.26,16.13ZM65.62,73.56A23.59,23.59,0,0,0,60,72.92c-4.11,0-6.72,2-6.72,5.38C53.29,81,55.34,83,58.74,83,63.33,83,65.62,80.12,65.62,73.56Z"/><path d="M102.31,78.86c0,2.45.79,3.71,3.16,3.71a4.29,4.29,0,0,0,1.34-.16v8.86a22.26,22.26,0,0,1-6,.79c-6.8,0-11.94-2.45-11.94-11V28h13.44Z"/><path d="M125,78.86c0,2.45.79,3.71,3.16,3.71a4.38,4.38,0,0,0,1.35-.16v8.86a22.4,22.4,0,0,1-6,.79c-6.8,0-11.94-2.45-11.94-11V28H125Z"/><path d="M146.43,70.87c1,7,4.19,10.75,10.75,10.75,3.72,0,6.48-1.9,6.48-5.85,0-4.43-2.69-6.17-12.41-9.57-11.23-4-17-9.41-17-18.81,0-11.63,8.22-18.59,20.72-18.59,12.65,0,20.39,6.33,22.13,18.11L163,49.84c-.55-7.44-3.48-11.31-8.7-11.31-4,0-6.24,2.53-6.24,6.32,0,4.2,2.92,6.41,11.78,9.26C173,58.3,178.53,63.2,178.53,73.32c0,11.47-8.3,18.82-22.22,18.82-14.55,0-22.77-6.56-24.43-19.45Z"/><path d="M198.53,51.81a14,14,0,0,1,12.1-6.4c11.78,0,18.18,8.3,18.18,23.48,0,13.52-7.9,23.17-19,23.17a13.25,13.25,0,0,1-11.62-6h-.32A46.32,46.32,0,0,1,199.08,98v8.5H185.64V46.2h13.44v.24a21.28,21.28,0,0,1-.79,5.37Zm16.61,17.08c0-8.85-3.32-13.68-8.46-13.68-4.91,0-7.83,4.83-7.83,13.76s2.61,13.44,8.22,13.44C211.82,82.41,215.14,77.67,215.14,68.89Z"/><path d="M273.88,72.69H247.16C248,80.2,251,83,255,83c3,0,5-2.06,5.93-5.85l11.79,3.55c-3.8,9.1-10.2,11.39-17.87,11.39-13.6,0-21.27-8.07-21.27-22.62,0-16.13,8.62-24,20.16-24,14.39,0,20.16,9.17,20.16,20.4Zm-12.49-9c-.08-6.16-3.08-9.25-7-9.25-3.32,0-6.32,2.06-7.19,9.25Z"/><path d="M318.32,76.4c0,2.85,1,4.19,3.08,4.19a3.44,3.44,0,0,0,1.11-.07V90a18.68,18.68,0,0,1-7.2,1.27c-5.14,0-7.51-1.74-8.62-5.14-2.68,4-6.87,5.93-12.65,5.93-9.33,0-15-5-15-13.44,0-9.33,7.51-14.31,19.45-14.31a37.63,37.63,0,0,1,6.33.55V62.17c0-5.45-2.06-8-5.7-8s-5.77,2.29-6.64,7.35L281,59.4c2.21-9.09,8.93-14,19.05-14,11.31,0,18.27,5.93,18.27,16.13ZM304.8,73.56a23.68,23.68,0,0,0-5.62-.64c-4.11,0-6.72,2-6.72,5.38,0,2.69,2.06,4.67,5.46,4.67C302.5,83,304.8,80.12,304.8,73.56Z"/><path d="M353.66,64.7l17.55,26.57H355.08L344.8,74l-3.32,3.48V91.27H328V28h13.44V55.92a48.14,48.14,0,0,1-1.18,11.31h.39a59.11,59.11,0,0,1,7-11.23L355,46.2h16.21Z"/></svg>