<?xml version="1.0" encoding="utf-8"?>
<!-- Generator: Adobe Illustrator 25.0.1, SVG Export Plug-In . SVG Version: 6.00 Build 0)  -->
<svg version="1.1" id="Layer_1" xmlns="http://www.w3.org/2000/svg" xmlns:xlink="http://www.w3.org/1999/xlink" x="0px" y="0px"
	 viewBox="0 0 411.04 164.12" style="enable-background:new 0 0 411.04 164.12;" xml:space="preserve">
<style type="text/css">
	.st0{filter:url(#Adobe_OpacityMaskFilter);}
	.st1{mask:url(#SVGID_1_);}
	.st2{filter:url(#Adobe_OpacityMaskFilter_1_);}
	.st3{mask:url(#SVGID_2_);}
	.st4{filter:url(#Adobe_OpacityMaskFilter_2_);}
	.st5{filter:url(#Adobe_OpacityMaskFilter_3_);}
	.st6{filter:url(#Adobe_OpacityMaskFilter_4_);}
	.st7{mask:url(#SVGID_3_);}
	.st8{filter:url(#Adobe_OpacityMaskFilter_5_);}
	.st9{fill:#FFFFFF;}
	.st10{filter:url(#Adobe_OpacityMaskFilter_6_);}
	.st11{mask:url(#SVGID_4_);}
	.st12{filter:url(#Adobe_OpacityMaskFilter_7_);}
</style>
<g>
	<path class="st9" d="M88.69,91.03H74.96l-3.34-13.58H53.89l-3.26,13.58H37.94L52.7,33.15h21.15L88.69,91.03z M64.65,48.73
		c-0.67-2.6-1.26-5.27-1.63-7.94h-0.37c-0.45,2.67-1.04,5.34-1.71,7.94l-4.53,18.33H69.1L64.65,48.73z"/>
	<path class="st9" d="M106.5,79.38c0,2.3,0.74,3.49,2.97,3.49c0.3,0,0.82,0,1.26-0.15v8.31c-1.41,0.45-3.64,0.74-5.64,0.74
		c-6.38,0-11.2-2.3-11.2-10.31V31.66h12.61V79.38z"/>
	<path class="st9" d="M127.79,79.38c0,2.3,0.74,3.49,2.97,3.49c0.3,0,0.82,0,1.26-0.15v8.31c-1.41,0.45-3.64,0.74-5.64,0.74
		c-6.38,0-11.2-2.3-11.2-10.31V31.66h12.61V79.38z"/>
	<path class="st9" d="M164.81,71.88c0.96,6.53,3.93,10.09,10.09,10.09c3.49,0,6.08-1.78,6.08-5.49c0-4.16-2.52-5.79-11.65-8.98
		c-10.54-3.71-15.95-8.83-15.95-17.66c0-10.91,7.72-17.44,19.44-17.44c11.87,0,19.14,5.94,20.78,16.99l-13.21,2.75
		c-0.52-6.98-3.26-10.61-8.16-10.61c-3.78,0-5.86,2.37-5.86,5.94c0,3.93,2.75,6.01,11.06,8.68c12.32,3.93,17.51,8.53,17.51,18.03
		c0,10.76-7.79,17.66-20.85,17.66c-13.65,0-21.37-6.16-22.93-18.25L164.81,71.88z"/>
	<path class="st9" d="M213.71,54c2.6-3.86,6.46-6.01,11.35-6.01c11.06,0,17.07,7.79,17.07,22.04c0,12.69-7.42,21.74-17.81,21.74
		c-4.82,0-8.46-2-10.91-5.64h-0.3c0.74,3.12,1.11,5.86,1.11,11.2v8.98h-12.61V48.73h12.61v0.22c0,1.41-0.3,3.56-0.74,5.05H213.71z
		 M229.29,70.03c0-8.31-3.12-12.84-7.94-12.84c-4.6,0-7.35,4.53-7.35,12.91c0,8.46,2.45,12.61,7.72,12.61
		C226.18,82.71,229.29,78.26,229.29,70.03z"/>
	<path class="st9" d="M284.42,73.59h-25.08c0.74,7.05,3.56,9.65,7.35,9.65c2.82,0,4.67-1.93,5.56-5.49l11.06,3.34
		c-3.56,8.53-9.57,10.69-16.77,10.69c-12.76,0-19.96-7.57-19.96-21.22c0-15.14,8.09-22.56,18.92-22.56
		c13.5,0,18.92,8.61,18.92,19.14V73.59z M272.7,65.13c-0.07-5.79-2.89-8.68-6.53-8.68c-3.12,0-5.94,1.93-6.75,8.68H272.7z"/>
	<path class="st9" d="M326.12,77.08c0,2.67,0.96,3.93,2.89,3.93c0.67,0,0.89,0,1.04-0.07v8.9c-2.37,0.89-4.23,1.19-6.75,1.19
		c-4.82,0-7.05-1.63-8.09-4.82c-2.52,3.78-6.46,5.56-11.87,5.56c-8.76,0-14.1-4.67-14.1-12.61c0-8.76,7.05-13.43,18.25-13.43
		c1.63,0,3.86,0.15,5.94,0.52v-2.52c0-5.12-1.93-7.49-5.34-7.49c-3.49,0-5.42,2.15-6.23,6.9l-10.76-2
		c2.08-8.53,8.38-13.13,17.88-13.13c10.61,0,17.14,5.56,17.14,15.14V77.08z M313.43,74.4c-1.41-0.37-3.41-0.59-5.27-0.59
		c-3.86,0-6.31,1.85-6.31,5.05c0,2.52,1.93,4.38,5.12,4.38C311.28,83.23,313.43,80.56,313.43,74.4z"/>
	<path class="st9" d="M359.29,66.09l16.47,24.93h-15.14l-9.65-16.18l-3.12,3.26v12.91h-12.61V31.66h12.61v26.19
		c0,4.6-0.45,7.64-1.11,10.61h0.37c1.41-3.04,3.04-5.86,6.53-10.54l6.9-9.2h15.21L359.29,66.09z"/>
</g>
<g>
	<path class="st9" d="M411.04,27.83C411.04,12.46,398.58,0,383.21,0h-34.45L28.5,0C12.77,0.02,0.02,12.77,0,28.5l0,70.66
		c-0.01,5.64,1.66,11.15,4.81,15.82c10.05,19.34,56.38,47.93,56.88,48.22c0.99,0.59,2.11,0.91,3.26,0.92
		c0.83,0.01,1.65-0.15,2.42-0.47c3.19-1.31,4.71-4.96,3.4-8.15c-3.36-9.06-5.96-18.39-7.79-27.88h319.54
		c15.73,0,28.48-12.74,28.5-28.46V45.12V27.83z M12.56,28.5c0.01-8.8,7.14-15.94,15.95-15.95h354.03
		c8.8,0.01,15.94,7.14,15.95,15.95v70.66c-0.02,8.79-7.15,15.91-15.95,15.91H55.46c-1.83,0.03-3.57,0.83-4.77,2.22
		c-1.18,1.39-1.7,3.22-1.42,5.02c0.08,0.59,1.51,9.67,4.31,20.47c-14.06-9.79-32.61-24.07-37.55-33.44
		c-0.17-0.4-0.38-0.78-0.63-1.13c-1.88-2.64-2.88-5.8-2.85-9.04L12.56,28.5z"/>
</g>
</svg>
