<svg id="Layer_1" data-name="Layer 1" xmlns="http://www.w3.org/2000/svg" viewBox="0 0 331.37 78.48"><defs><style>.cls-1{fill:#fff;}</style></defs><path class="cls-1" d="M39.3,48.39c0,2.85,1,4.19,3.08,4.19a3,3,0,0,0,1.11-.08V62a18.68,18.68,0,0,1-7.2,1.27c-5.14,0-7.51-1.74-8.62-5.14-2.68,4-6.88,5.93-12.65,5.93-9.33,0-15-5-15-13.44,0-9.34,7.51-14.32,19.45-14.32a37.72,37.72,0,0,1,6.33.56V34.16c0-5.46-2.06-8-5.7-8s-5.77,2.3-6.64,7.36L2,31.39c2.21-9.09,8.93-14,19.05-14,11.31,0,18.27,5.93,18.27,16.13ZM25.78,45.54a24.24,24.24,0,0,0-5.62-.63c-4.11,0-6.72,2-6.72,5.38C13.44,53,15.5,55,18.9,55,23.48,55,25.78,52.11,25.78,45.54Z"/><path class="cls-1" d="M62.46,50.84c0,2.45.79,3.72,3.17,3.72A4.36,4.36,0,0,0,67,54.4v8.86a22.34,22.34,0,0,1-6,.79c-6.8,0-11.94-2.46-11.94-11V0H62.46Z"/><path class="cls-1" d="M85.15,50.84c0,2.45.79,3.72,3.17,3.72a4.32,4.32,0,0,0,1.34-.16v8.86a22.29,22.29,0,0,1-6,.79c-6.8,0-11.94-2.46-11.94-11V0H85.15Z"/><path class="cls-1" d="M106.58,42.86c1,7,4.19,10.75,10.75,10.75,3.72,0,6.49-1.9,6.49-5.85,0-4.43-2.69-6.17-12.42-9.57-11.22-3.95-17-9.41-17-18.82C94.4,7.75,102.63.79,115.12.79c12.65,0,20.4,6.33,22.14,18.11l-14.08,2.92c-.55-7.43-3.47-11.3-8.69-11.3-4,0-6.25,2.53-6.25,6.32,0,4.19,2.93,6.41,11.78,9.25,13.13,4.19,18.66,9.1,18.66,19.22,0,11.46-8.3,18.82-22.22,18.82-14.54,0-22.77-6.57-24.43-19.46Z"/><path class="cls-1" d="M158.69,23.8a14,14,0,0,1,12.09-6.4c11.78,0,18.19,8.3,18.19,23.48,0,13.52-7.91,23.17-19,23.17a13.26,13.26,0,0,1-11.62-6h-.32A46.19,46.19,0,0,1,159.24,70v8.5H145.8V18.19h13.44v.23a21.75,21.75,0,0,1-.79,5.38Zm16.6,17.08c0-8.86-3.32-13.68-8.46-13.68C161.93,27.2,159,32,159,41s2.61,13.44,8.23,13.44C172,54.4,175.29,49.66,175.29,40.88Z"/><path class="cls-1" d="M234,44.67H207.31c.79,7.52,3.8,10.28,7.83,10.28,3,0,5-2.05,5.93-5.85l11.78,3.56c-3.79,9.09-10.2,11.39-17.87,11.39-13.6,0-21.27-8.07-21.27-22.62,0-16.13,8.62-24,20.16-24,14.39,0,20.17,9.17,20.17,20.4Zm-12.5-9c-.08-6.17-3.08-9.25-6.95-9.25-3.33,0-6.33,2.06-7.2,9.25Z"/><path class="cls-1" d="M278.47,48.39c0,2.85,1,4.19,3.09,4.19a3,3,0,0,0,1.1-.08V62a18.63,18.63,0,0,1-7.19,1.27c-5.14,0-7.51-1.74-8.62-5.14-2.69,4-6.88,5.93-12.65,5.93-9.33,0-15-5-15-13.44,0-9.34,7.52-14.32,19.46-14.32a37.53,37.53,0,0,1,6.32.56V34.16c0-5.46-2.05-8-5.69-8s-5.77,2.3-6.64,7.36l-11.47-2.14c2.22-9.09,8.94-14,19.06-14,11.3,0,18.26,5.93,18.26,16.13ZM265,45.54a24.15,24.15,0,0,0-5.61-.63c-4.11,0-6.72,2-6.72,5.38,0,2.69,2,4.66,5.45,4.66C262.66,55,265,52.11,265,45.54Z"/><path class="cls-1" d="M313.81,36.69l17.56,26.57H315.24L305,46l-3.32,3.48V63.26H288.2V0h13.44V27.91a48.13,48.13,0,0,1-1.19,11.31h.4A59.17,59.17,0,0,1,307.8,28l7.36-9.8h16.21Z"/></svg>